<svg version="1.2" xmlns="http://www.w3.org/2000/svg" viewBox="0 0 1000 1000" width="1452" height="1452">
	<title>2509997-ai</title>
	<defs>
		<linearGradient id="g1" x2="1" gradientUnits="userSpaceOnUse" gradientTransform="matrix(-209.344,-211.143,138.243,-137.065,627.785,515.884)">
			<stop offset="0" stop-color="#006dff"/>
			<stop offset="1" stop-color="#1ff19f"/>
		</linearGradient>
		<linearGradient id="g2" x2="1" gradientUnits="userSpaceOnUse" gradientTransform="matrix(22.032,21.578,-8.136,8.307,503.826,280.689)">
			<stop offset="0" stop-color="#2284c6" stop-opacity="1"/>
			<stop offset="1" stop-color="#2284c6" stop-opacity="0"/>
		</linearGradient>
		<linearGradient id="g3" x2="1" gradientUnits="userSpaceOnUse" gradientTransform="matrix(-210.171,-211.978,172.956,-171.482,581.58,533.45)">
			<stop offset="0" stop-color="#006dff"/>
			<stop offset="1" stop-color="#1ff19f"/>
		</linearGradient>
		<linearGradient id="g4" x2="1" gradientUnits="userSpaceOnUse" gradientTransform="matrix(-21.782,-19.674,9.542,-10.565,589.015,423.377)">
			<stop offset="0" stop-color="#2284c6" stop-opacity="1"/>
			<stop offset="1" stop-color="#2284c6" stop-opacity="0"/>
		</linearGradient>
		<linearGradient id="g5" x2="1" gradientUnits="userSpaceOnUse" gradientTransform="matrix(250.879,-233.682,128.454,137.907,297.501,381.113)">
			<stop offset="0" stop-color="#006dff"/>
			<stop offset="1" stop-color="#1ff19f"/>
		</linearGradient>
		<linearGradient id="g6" x2="1" gradientUnits="userSpaceOnUse" gradientTransform="matrix(250.88,-233.682,128.021,137.442,297.501,381.114)">
			<stop offset="0" stop-color="#006dff"/>
			<stop offset="1" stop-color="#1ff19f"/>
		</linearGradient>
		<linearGradient id="g7" x2="1" gradientUnits="userSpaceOnUse" gradientTransform="matrix(-10.842,-24.984,8.048,-3.493,420.817,405.63)">
			<stop offset="0" stop-color="#2284c6" stop-opacity="1"/>
			<stop offset="1" stop-color="#2284c6" stop-opacity="0"/>
		</linearGradient>
		<linearGradient id="g8" x2="1" gradientUnits="userSpaceOnUse" gradientTransform="matrix(250.727,-233.54,128.377,137.825,352.887,382.517)">
			<stop offset="0" stop-color="#006dff"/>
			<stop offset="1" stop-color="#1ff19f"/>
		</linearGradient>
		<linearGradient id="g9" x2="1" gradientUnits="userSpaceOnUse" gradientTransform="matrix(8.653,20.189,-7.367,3.157,642.824,284.653)">
			<stop offset="0" stop-color="#2284c6" stop-opacity="1"/>
			<stop offset="1" stop-color="#2284c6" stop-opacity="0"/>
		</linearGradient>
	</defs>
	<style>
		tspan { white-space:pre } 
		.t0 { font-size: 22px;fill: #00e8ff;font-weight: 700;font-family: "BebasNeueBold", "Bebas Neue" } 
		.s1 { fill: url(#g1) } 
		.s2 { mix-blend-mode: multiply;fill: url(#g2) } 
		.s3 { fill: url(#g3) } 
		.s4 { mix-blend-mode: multiply;fill: url(#g4) } 
		.s5 { fill: url(#g5) } 
		.s6 { fill: url(#g6) } 
		.s7 { fill: url(#g7) } 
		.s8 { fill: url(#g8) } 
		.s9 { mix-blend-mode: multiply;fill: url(#g9) } 
	</style>
	<g id="BACKGROUND">
	</g>
	<g id="OBJECTS">
		<g id="&lt;Group&gt;">
			<g id="&lt;Group&gt;">
			</g>
			<g id="&lt;Group&gt;">
			</g>
		</g>
		<g id="&lt;Group&gt;">
			<g id="&lt;Group&gt;">
			</g>
			<g id="&lt;Group&gt;">
			</g>
		</g>
		<g id="&lt;Group&gt;">
			<g id="&lt;Group&gt;">
			</g>
			<g id="&lt;Group&gt;">
			</g>
		</g>
		<g id="&lt;Group&gt;">
			<g id="&lt;Group&gt;">
				<text id="HUu Loc" style="transform: matrix(2,0,0,2,450.29,498.787)" >
					<tspan x="0" y="0" class="t0" dx="0 4 4 4" >HUu </tspan><tspan  y="0" class="t0" dx="0" >L</tspan><tspan  y="0" class="t0" dx="0" >o</tspan><tspan  y="0" class="t0" dx="0" >c</tspan><tspan  y="0" class="t0" dx="0" >
</tspan>
				</text>
			</g>
			<g id="&lt;Group&gt;">
				<path id="&lt;Compound Path&gt;" fill-rule="evenodd" class="s1" d="m553.2 361.4c-5.9 5.9-13.7 8.9-21.4 8.9-7.8 0-15.6-3-21.5-8.9-10.4-10.4-11.7-26.5-3.8-38.3l-23.1-23 8.5-8.5 23.1 23c11.7-7.8 27.8-6.5 38.2 3.9 11.9 11.8 11.9 31.1 0 42.9zm-8.5-34.5c-3.5-3.5-8.2-5.3-12.9-5.3-4.7 0-9.4 1.8-13 5.3-7.2 7.2-7.2 18.9 0 26 7.1 7.2 18.8 7.2 25.9 0 7.2-7.1 7.2-18.8 0-26z"/>
				<path id="&lt;Path&gt;" class="s2" d="m515 314.6l-8.5 8.5-23.1-23 8.5-8.5z"/>
				<path id="&lt;Compound Path&gt;" fill-rule="evenodd" class="s3" d="m606.1 405.8l-8.5 8.5-22-22c-12.6 10.6-28.2 15.9-43.8 15.9-17.5 0-35-6.6-48.4-19.9-12.9-13-20-30.1-20-48.4 0-18.2 7.1-35.4 20-48.3 26.7-26.7 70-26.7 96.7 0 12.9 12.9 20 30.1 20 48.3 0 16.3-5.6 31.6-16 43.9zm-18-65.9c0-15-5.8-29.2-16.5-39.8-11-11-25.4-16.5-39.8-16.5-14.4 0-28.9 5.5-39.9 16.5-10.6 10.6-16.5 24.8-16.5 39.8 0 15.1 5.9 29.2 16.5 39.9 22 22 57.8 22 79.7 0 10.7-10.7 16.5-24.8 16.5-39.9z"/>
				<path id="&lt;Path&gt;" class="s4" d="m606.1 405.8l-8.5 8.5-19-19 8.9-8.2z"/>
				<g id="&lt;Group&gt;">
					<path id="&lt;Compound Path&gt;" fill-rule="evenodd" class="s5" d="m618.1 253.6c8.9 8.9 8.9 23.5 0 32.4-8.9 8.9-23.5 8.9-32.4 0-6.8-6.8-8.4-16.9-4.8-25.3-36.3-22.4-84.4-17.3-115 13.3-21.4 21.5-30.6 51.7-26.1 80.6 1.6 10.4 5 20.7 10.3 30.3q2.5 4.5 5.5 8.7 0.8 1.1 1.6 2.2l-9.6 7.2q-0.3-0.4-0.6-0.8c-2.7-3.7-5.2-7.5-7.4-11.5-4.5-8.3-7.9-17-10-25.9-8.4-35 1.6-73 27.8-99.2 34.9-34.9 90-40.5 131-14.3 9-6.5 21.6-5.8 29.7 2.3zm-8.5 8.5c-4.2-4.3-11.2-4.3-15.4 0-4.3 4.2-4.3 11.2 0 15.4 4.2 4.3 11.2 4.3 15.4 0 4.3-4.2 4.3-11.2 0-15.4z"/>
					<path id="&lt;Compound Path&gt;" fill-rule="evenodd" class="s6" d="m618.1 253.6c8.1 8.1 8.8 20.8 2.3 29.7q-2.1-3.3-4.5-6.5l-9.6 7.2q2.5 3.3 4.7 6.8c-8.4 3.6-18.5 2-25.3-4.8-6.8-6.8-8.4-16.9-4.8-25.3-36.3-22.4-84.4-17.3-115 13.3-21.4 21.5-30.6 51.7-26.1 80.6 1.6 10.4 5 20.7 10.3 30.3q2.5 4.5 5.5 8.7 0.8 1.1 1.6 2.2l-9.6 7.2q-0.3-0.4-0.6-0.8c-2.7-3.7-5.2-7.5-7.4-11.5-4.5-8.3-7.9-17-10-25.9-8.4-35 1.6-73 27.8-99.2 34.9-34.9 90-40.5 131-14.3 9-6.5 21.6-5.8 29.7 2.3zm-8.5 8.5c-4.2-4.3-11.2-4.3-15.4 0-4.3 4.2-4.3 11.2 0 15.4 4.2 4.3 11.2 4.3 15.4 0 4.3-4.2 4.3-11.2 0-15.4z"/>
					<path id="&lt;Path&gt;" class="s7" d="m439.8 354.6c1.6 10.4 5 20.7 10.3 30.3q2.5 4.5 5.5 8.7l-8.6 8.6c-2.7-3.7-5.2-7.5-7.4-11.5-4.5-8.3-7.9-17-10-25.9z"/>
					<path id="&lt;Compound Path&gt;" fill-rule="evenodd" class="s8" d="m615.9 276.8c3 3.9 5.7 8.1 8 12.4 5.2 9.3 8.8 19.3 10.8 29.4 7 34-3.2 70.3-28.6 95.7-17.8 17.8-41.5 28.7-66.7 30.5-22.7 1.7-45.3-4.1-64.3-16.3-8.9 6.6-21.6 5.8-29.7-2.3-8.9-8.9-8.9-23.4 0.1-32.4 8.9-8.9 23.4-8.9 32.3 0 6.9 6.9 8.5 17 4.9 25.3 36.6 22.9 83.9 17.8 114.9-13.3 20.5-20.5 29.8-49 26.7-76.7-1.4-11.8-4.9-23.4-10.9-34.1-2.1-3.8-4.5-7.5-7.1-11zm-146.5 125.5c-4.3-4.2-11.2-4.2-15.5 0-4.2 4.3-4.2 11.2 0 15.5 4.3 4.2 11.2 4.2 15.5 0 4.2-4.3 4.2-11.2 0-15.5z"/>
					<path id="&lt;Path&gt;" class="s9" d="m620.4 283.3q1.9 2.9 3.5 5.9c5.2 9.3 8.8 19.3 10.8 29.4l-10.4 10.5c-1.4-11.8-4.9-23.4-10.9-34.1q-1.2-2.1-2.4-4.2c2.6-1.1 5-2.7 7.1-4.8q1.3-1.3 2.3-2.7z"/>
				</g>
			</g>
		</g>
	</g>
	<g id="DESIGNED BY FREEPIK">
		<g id="&lt;Group&gt;">
			<g id="&lt;Group&gt;">
				<g id="&lt;Group&gt;">
				</g>
			</g>
			<g id="&lt;Group&gt;">
			</g>
		</g>
	</g>
</svg>